<svg width="14" height="13" viewBox="0 0 14 13" fill="none" xmlns="http://www.w3.org/2000/svg">
    <path
        d="M13.7997 10.7556L8.33407 1.26376C8.19749 1.03121 8.00251 0.838397 7.76845 0.704423C7.53439 0.570449 7.26938 0.499969 6.99969 0.499969C6.73 0.499969 6.465 0.570449 6.23094 0.704423C5.99688 0.838397 5.8019 1.03121 5.66532 1.26376L0.199694 10.7556C0.0682789 10.9806 -0.000976562 11.2364 -0.000976562 11.4969C-0.000976562 11.7574 0.0682789 12.0132 0.199694 12.2381C0.334525 12.4721 0.529175 12.666 0.76367 12.7998C0.998164 12.9337 1.26406 13.0028 1.53407 13H12.4653C12.7351 13.0026 13.0008 12.9334 13.235 12.7995C13.4693 12.6656 13.6637 12.4719 13.7984 12.2381C13.93 12.0133 13.9995 11.7576 13.9997 11.4971C14 11.2366 13.9309 10.9807 13.7997 10.7556ZM6.49969 5.50001C6.49969 5.3674 6.55237 5.24023 6.64614 5.14646C6.73991 5.05269 6.86709 5.00001 6.99969 5.00001C7.1323 5.00001 7.25948 5.05269 7.35325 5.14646C7.44702 5.24023 7.49969 5.3674 7.49969 5.50001V8.00001C7.49969 8.13262 7.44702 8.2598 7.35325 8.35356C7.25948 8.44733 7.1323 8.50001 6.99969 8.50001C6.86709 8.50001 6.73991 8.44733 6.64614 8.35356C6.55237 8.2598 6.49969 8.13262 6.49969 8.00001V5.50001ZM6.99969 11C6.85136 11 6.70635 10.956 6.58302 10.8736C6.45968 10.7912 6.36355 10.6741 6.30678 10.537C6.25002 10.4 6.23517 10.2492 6.2641 10.1037C6.29304 9.95821 6.36447 9.82457 6.46936 9.71968C6.57425 9.61479 6.70789 9.54336 6.85338 9.51442C6.99886 9.48548 7.14966 9.50034 7.28671 9.5571C7.42375 9.61387 7.54088 9.71 7.6233 9.83333C7.70571 9.95667 7.74969 10.1017 7.74969 10.25C7.74969 10.4489 7.67068 10.6397 7.53002 10.7803C7.38937 10.921 7.19861 11 6.99969 11Z"
        fill="#EAAA08" />
</svg>