<?xml version="1.0" encoding="UTF-8"?>
<svg xmlns="http://www.w3.org/2000/svg" xmlns:xlink="http://www.w3.org/1999/xlink" width="16px" height="11px" viewBox="0 0 15 11" version="1.1">
<g id="surface1">
<path style=" stroke:none;fill-rule:nonzero;fill:rgb(85.490197%,14.509805%,11.372549%);fill-opacity:1;" d="M 0.863281 0 L 14.132812 0 C 14.582031 0.00390625 14.945312 0.390625 14.945312 0.867188 L 14.945312 10.128906 C 14.945312 10.605469 14.582031 10.996094 14.132812 10.996094 L 0.863281 10.996094 C 0.414062 10.996094 0.0507812 10.609375 0.0507812 10.132812 L 0.0507812 0.867188 C 0.0507812 0.390625 0.414062 0.00390625 0.863281 0 Z M 0.863281 0 "/>
<path style=" stroke:none;fill-rule:nonzero;fill:rgb(100%,100%,0%);fill-opacity:1;" d="M 7.5 3.300781 L 6.859375 5.390625 L 8.175781 5.84375 Z M 7.5 3.300781 Z M 7.5 3.300781 "/>
<path style=" stroke:none;fill-rule:nonzero;fill:rgb(100%,100%,0%);fill-opacity:1;" d="M 7.5 3.300781 L 8.140625 5.390625 L 6.824219 5.84375 Z M 7.5 3.300781 Z M 7.5 3.300781 "/>
<path style=" stroke:none;fill-rule:nonzero;fill:rgb(100%,100%,0%);fill-opacity:1;" d="M 9.46875 4.820312 L 7.398438 4.820312 L 7.398438 6.289062 Z M 9.46875 4.820312 Z M 9.46875 4.820312 "/>
<path style=" stroke:none;fill-rule:nonzero;fill:rgb(100%,100%,0%);fill-opacity:1;" d="M 9.46875 4.820312 L 7.792969 6.113281 L 6.980469 4.925781 Z M 9.46875 4.820312 Z M 9.46875 4.820312 "/>
<path style=" stroke:none;fill-rule:nonzero;fill:rgb(100%,100%,0%);fill-opacity:1;" d="M 8.71875 7.277344 L 8.078125 5.1875 L 6.761719 5.640625 Z M 8.71875 7.277344 Z M 8.71875 7.277344 "/>
<path style=" stroke:none;fill-rule:nonzero;fill:rgb(100%,100%,0%);fill-opacity:1;" d="M 8.71875 7.277344 L 7.042969 5.988281 L 7.855469 4.800781 Z M 8.71875 7.277344 Z M 8.71875 7.277344 "/>
<path style=" stroke:none;fill-rule:nonzero;fill:rgb(100%,100%,0%);fill-opacity:1;" d="M 5.53125 4.820312 L 7.601562 4.820312 L 7.601562 6.289062 Z M 5.53125 4.820312 Z M 5.53125 4.820312 "/>
<path style=" stroke:none;fill-rule:nonzero;fill:rgb(100%,100%,0%);fill-opacity:1;" d="M 5.53125 4.820312 L 7.207031 6.113281 L 8.019531 4.925781 Z M 5.53125 4.820312 Z M 5.53125 4.820312 "/>
<path style=" stroke:none;fill-rule:nonzero;fill:rgb(100%,100%,0%);fill-opacity:1;" d="M 6.28125 7.277344 L 6.921875 5.1875 L 8.238281 5.640625 Z M 6.28125 7.277344 Z M 6.28125 7.277344 "/>
<path style=" stroke:none;fill-rule:nonzero;fill:rgb(100%,100%,0%);fill-opacity:1;" d="M 6.28125 7.277344 L 7.957031 5.988281 L 7.144531 4.800781 Z M 6.28125 7.277344 Z M 6.28125 7.277344 "/>
</g>
</svg>
